<svg id="visual" viewBox="0 0 900 300" width="900" height="300" xmlns="http://www.w3.org/2000/svg" xmlns:xlink="http://www.w3.org/1999/xlink" version="1.1"><rect width="900" height="300" fill="#fff"></rect><g><g transform="translate(678 287)"><path d="M118.6 -33.5C134.1 8.9 113.3 68.2 72.1 97.8C30.8 127.5 -30.9 127.5 -72 97.9C-113.1 68.4 -133.6 9.1 -118.2 -33.3C-102.7 -75.8 -51.4 -101.4 0.1 -101.5C51.6 -101.5 103.2 -75.9 118.6 -33.5Z" fill="#1E40AF"></path></g><g transform="translate(215 248)"><path d="M104.9 -32.1C118.7 8.3 100.7 61 65.5 85.5C30.3 110 -22.1 106.3 -55.8 80.8C-89.4 55.4 -104.4 8.3 -91.9 -30.2C-79.5 -68.7 -39.8 -98.6 2.9 -99.5C45.6 -100.5 91.1 -72.4 104.9 -32.1Z" fill="#1E40AF"></path></g><g transform="translate(890 14)"><path d="M85.3 -27.8C98.6 13.1 89.1 61.4 57.6 85.9C26 110.4 -27.7 111.2 -62.3 86C-97 60.8 -112.5 9.6 -98.9 -31.7C-85.4 -73 -42.7 -104.5 -3.3 -103.4C36 -102.3 72.1 -68.7 85.3 -27.8Z" fill="#1E40AF"></path></g><g transform="translate(459 2)"><path d="M61.4 -18.9C69 3.1 57 32.6 35.1 48.5C13.3 64.4 -18.5 66.8 -38.9 52.3C-59.3 37.7 -68.3 6.3 -60 -17C-51.6 -40.3 -25.8 -55.4 0.6 -55.6C27 -55.8 53.9 -41 61.4 -18.9Z" fill="#1E40AF"></path></g></g></svg>