<svg id="visual" viewBox="0 0 900 300" width="900" height="300" xmlns="http://www.w3.org/2000/svg" xmlns:xlink="http://www.w3.org/1999/xlink" version="1.1"><rect x="0" y="0" width="900" height="300" fill="#fff"></rect><path d="M0 220L21.5 213.7C43 207.3 86 194.7 128.8 196.5C171.7 198.3 214.3 214.7 257.2 216.5C300 218.3 343 205.7 385.8 198C428.7 190.3 471.3 187.7 514.2 192.5C557 197.3 600 209.7 642.8 209.3C685.7 209 728.3 196 771.2 191.7C814 187.3 857 191.7 878.5 193.8L900 196L900 301L878.5 301C857 301 814 301 771.2 301C728.3 301 685.7 301 642.8 301C600 301 557 301 514.2 301C471.3 301 428.7 301 385.8 301C343 301 300 301 257.2 301C214.3 301 171.7 301 128.8 301C86 301 43 301 21.5 301L0 301Z" fill="#80b9ff"></path><path d="M0 249L21.5 245.2C43 241.3 86 233.7 128.8 228.8C171.7 224 214.3 222 257.2 226.7C300 231.3 343 242.7 385.8 248.3C428.7 254 471.3 254 514.2 252.7C557 251.3 600 248.7 642.8 241.3C685.7 234 728.3 222 771.2 218.5C814 215 857 220 878.5 222.5L900 225L900 301L878.5 301C857 301 814 301 771.2 301C728.3 301 685.7 301 642.8 301C600 301 557 301 514.2 301C471.3 301 428.7 301 385.8 301C343 301 300 301 257.2 301C214.3 301 171.7 301 128.8 301C86 301 43 301 21.5 301L0 301Z" fill="#a0caff"></path><path d="M0 252L21.5 250.5C43 249 86 246 128.8 248.5C171.7 251 214.3 259 257.2 259.5C300 260 343 253 385.8 254.3C428.7 255.7 471.3 265.3 514.2 270.8C557 276.3 600 277.7 642.8 275.8C685.7 274 728.3 269 771.2 264.8C814 260.7 857 257.3 878.5 255.7L900 254L900 301L878.5 301C857 301 814 301 771.2 301C728.3 301 685.7 301 642.8 301C600 301 557 301 514.2 301C471.3 301 428.7 301 385.8 301C343 301 300 301 257.2 301C214.3 301 171.7 301 128.8 301C86 301 43 301 21.5 301L0 301Z" fill="#bfdbfe"></path></svg>