<svg id="visual" viewBox="0 0 900 300" width="900" height="300" xmlns="http://www.w3.org/2000/svg" xmlns:xlink="http://www.w3.org/1999/xlink" version="1.1"><rect x="0" y="0" width="900" height="300" fill="#fff"></rect><path d="M0 87L21.5 91.3C43 95.7 86 104.3 128.8 101.8C171.7 99.3 214.3 85.7 257.2 80.3C300 75 343 78 385.8 82C428.7 86 471.3 91 514.2 91.2C557 91.3 600 86.7 642.8 87.2C685.7 87.7 728.3 93.3 771.2 96C814 98.7 857 98.3 878.5 98.2L900 98L900 0L878.5 0C857 0 814 0 771.2 0C728.3 0 685.7 0 642.8 0C600 0 557 0 514.2 0C471.3 0 428.7 0 385.8 0C343 0 300 0 257.2 0C214.3 0 171.7 0 128.8 0C86 0 43 0 21.5 0L0 0Z" fill="#80b9ff"></path><path d="M0 58L21.5 59.8C43 61.7 86 65.3 128.8 64C171.7 62.7 214.3 56.3 257.2 52.8C300 49.3 343 48.7 385.8 54.5C428.7 60.3 471.3 72.7 514.2 75.8C557 79 600 73 642.8 66.3C685.7 59.7 728.3 52.3 771.2 50C814 47.7 857 50.3 878.5 51.7L900 53L900 0L878.5 0C857 0 814 0 771.2 0C728.3 0 685.7 0 642.8 0C600 0 557 0 514.2 0C471.3 0 428.7 0 385.8 0C343 0 300 0 257.2 0C214.3 0 171.7 0 128.8 0C86 0 43 0 21.5 0L0 0Z" fill="#a0caff"></path><path d="M0 26L21.5 29.8C43 33.7 86 41.3 128.8 44.3C171.7 47.3 214.3 45.7 257.2 42.7C300 39.7 343 35.3 385.8 34C428.7 32.7 471.3 34.3 514.2 33.5C557 32.7 600 29.3 642.8 27.3C685.7 25.3 728.3 24.7 771.2 25.3C814 26 857 28 878.5 29L900 30L900 0L878.5 0C857 0 814 0 771.2 0C728.3 0 685.7 0 642.8 0C600 0 557 0 514.2 0C471.3 0 428.7 0 385.8 0C343 0 300 0 257.2 0C214.3 0 171.7 0 128.8 0C86 0 43 0 21.5 0L0 0Z" fill="#bfdbfe"></path></svg>