<svg id="visual" viewBox="0 0 900 675" width="900" height="675" xmlns="http://www.w3.org/2000/svg" xmlns:xlink="http://www.w3.org/1999/xlink" version="1.1"><rect x="0" y="0" width="900" height="675" fill="#BFDBFE"></rect><path d="M457 0L531 0L531 29L382 29L382 59L438 59L438 88L388 88L388 117L459 117L459 147L473 147L473 176L434 176L434 205L496 205L496 235L453 235L453 264L536 264L536 293L453 293L453 323L394 323L394 352L404 352L404 382L452 382L452 411L415 411L415 440L403 440L403 470L543 470L543 499L427 499L427 528L536 528L536 558L438 558L438 587L525 587L525 616L486 616L486 646L460 646L460 675L0 675L0 646L0 646L0 616L0 616L0 587L0 587L0 558L0 558L0 528L0 528L0 499L0 499L0 470L0 470L0 440L0 440L0 411L0 411L0 382L0 382L0 352L0 352L0 323L0 323L0 293L0 293L0 264L0 264L0 235L0 235L0 205L0 205L0 176L0 176L0 147L0 147L0 117L0 117L0 88L0 88L0 59L0 59L0 29L0 29L0 0L0 0Z" fill="#9900ff"></path><path d="M360 0L324 0L324 29L316 29L316 59L380 59L380 88L308 88L308 117L420 117L420 147L314 147L314 176L447 176L447 205L396 205L396 235L380 235L380 264L449 264L449 293L440 293L440 323L345 323L345 352L306 352L306 382L347 382L347 411L347 411L347 440L368 440L368 470L329 470L329 499L298 499L298 528L320 528L320 558L333 558L333 587L410 587L410 616L312 616L312 646L412 646L412 675L0 675L0 646L0 646L0 616L0 616L0 587L0 587L0 558L0 558L0 528L0 528L0 499L0 499L0 470L0 470L0 440L0 440L0 411L0 411L0 382L0 382L0 352L0 352L0 323L0 323L0 293L0 293L0 264L0 264L0 235L0 235L0 205L0 205L0 176L0 176L0 147L0 147L0 117L0 117L0 88L0 88L0 59L0 59L0 29L0 29L0 0L0 0Z" fill="#762def"></path><path d="M322 0L303 0L303 29L231 29L231 59L329 59L329 88L284 88L284 117L258 117L258 147L331 147L331 176L225 176L225 205L235 205L235 235L239 235L239 264L349 264L349 293L261 293L261 323L285 323L285 352L340 352L340 382L340 382L340 411L257 411L257 440L272 440L272 470L251 470L251 499L273 499L273 528L222 528L222 558L321 558L321 587L297 587L297 616L305 616L305 646L278 646L278 675L0 675L0 646L0 646L0 616L0 616L0 587L0 587L0 558L0 558L0 528L0 528L0 499L0 499L0 470L0 470L0 440L0 440L0 411L0 411L0 382L0 382L0 352L0 352L0 323L0 323L0 293L0 293L0 264L0 264L0 235L0 235L0 205L0 205L0 176L0 176L0 147L0 147L0 117L0 117L0 88L0 88L0 59L0 59L0 29L0 29L0 0L0 0Z" fill="#553adc"></path><path d="M192 0L173 0L173 29L208 29L208 59L159 59L159 88L233 88L233 117L198 117L198 147L219 147L219 176L206 176L206 205L167 205L167 235L164 235L164 264L219 264L219 293L206 293L206 323L220 323L220 352L241 352L241 382L142 382L142 411L137 411L137 440L254 440L254 470L217 470L217 499L245 499L245 528L174 528L174 558L209 558L209 587L239 587L239 616L136 616L136 646L241 646L241 675L0 675L0 646L0 646L0 616L0 616L0 587L0 587L0 558L0 558L0 528L0 528L0 499L0 499L0 470L0 470L0 440L0 440L0 411L0 411L0 382L0 382L0 352L0 352L0 323L0 323L0 293L0 293L0 264L0 264L0 235L0 235L0 205L0 205L0 176L0 176L0 147L0 147L0 117L0 117L0 88L0 88L0 59L0 59L0 29L0 29L0 0L0 0Z" fill="#373fc7"></path><path d="M91 0L54 0L54 29L147 29L147 59L141 59L141 88L66 88L66 117L90 117L90 147L127 147L127 176L84 176L84 205L109 205L109 235L55 235L55 264L95 264L95 293L89 293L89 323L63 323L63 352L104 352L104 382L158 382L158 411L150 411L150 440L156 440L156 470L62 470L62 499L126 499L126 528L151 528L151 558L150 558L150 587L151 587L151 616L115 616L115 646L119 646L119 675L0 675L0 646L0 646L0 616L0 616L0 587L0 587L0 558L0 558L0 528L0 528L0 499L0 499L0 470L0 470L0 440L0 440L0 411L0 411L0 382L0 382L0 352L0 352L0 323L0 323L0 293L0 293L0 264L0 264L0 235L0 235L0 205L0 205L0 176L0 176L0 147L0 147L0 117L0 117L0 88L0 88L0 59L0 59L0 29L0 29L0 0L0 0Z" fill="#1e40af"></path></svg>